<?xml version="1.0" encoding="iso-8859-1"?>
<!-- Uploaded to: SVG Repo, www.svgrepo.com, Generator: SVG Repo Mixer Tools -->
<svg fill="#000000" height="800px" width="800px" version="1.1" id="Layer_1" xmlns="http://www.w3.org/2000/svg" xmlns:xlink="http://www.w3.org/1999/xlink" 
	 viewBox="0 0 512 512" xml:space="preserve">
<g>
	<g>
		<path d="M266.767,83.383h-21.533c-68.424,0-134.021,26.331-184.547,70.217h390.628C400.789,109.714,335.19,83.383,266.767,83.383z
			"/>
	</g>
</g>
<g>
	<g>
		<path d="M262.804,0h-13.609c-11.343,0-20.989,8.991-20.989,20.335v33.791h17.028h21.535h17.026V20.335
			C283.794,8.991,274.148,0,262.804,0z"/>
	</g>
</g>
<g>
	<g>
		<path d="M486.41,190.171H25.59c-12.118,0-21.943,10.032-21.943,22.152c0,6.491,2.835,12.2,7.314,16.219
			c3.884,3.483,9.001,5.516,14.629,5.516h13.907v151.969C39.497,455.619,96.837,512,166.431,512h179.14
			c69.593,0,126.932-56.381,126.932-125.974V234.057h13.907c5.628,0,10.745-2.032,14.629-5.516
			c4.479-4.017,7.314-9.727,7.314-16.217C508.353,200.205,498.529,190.171,486.41,190.171z"/>
	</g>
</g>
</svg>