<?xml version="1.0" ?>
<!-- Uploaded to: SVG Repo, www.svgrepo.com, Generator: SVG Repo Mixer Tools -->
<svg width="800px" height="800px" viewBox="0 0 24 24" version="1.1" xml:space="preserve" xmlns="http://www.w3.org/2000/svg" xmlns:xlink="http://www.w3.org/1999/xlink">
<style type="text/css">
	.st0{opacity:0.2;fill:none;stroke:#000000;stroke-width:5.000000e-02;stroke-miterlimit:10;}
</style>
<g id="Layer_Grid"/>
<g id="Layer_2">
<path d="M18,3c-1.7,0-3,1.3-3,3s1.3,3,3,3s3-1.3,3-3S19.7,3,18,3z M18,7c-0.6,0-1-0.4-1-1s0.4-1,1-1s1,0.4,1,1S18.6,7,18,7z"/>
<path d="M4,14.4c0.4,0,0.6,0.1,1,0.4c0.5,0.4,1.1,0.9,2.2,0.9s1.8-0.5,2.2-0.9c0.3-0.3,0.5-0.4,1-0.4c0.4,0,0.6,0.1,1,0.4   c0.5,0.4,1.1,0.9,2.2,0.9c1.2,0,1.8-0.5,2.2-0.9c0.4-0.3,0.5-0.4,1-0.4c0.5,0,0.6,0.1,1,0.4c0.5,0.4,1.1,0.9,2.2,0.9   c0.6,0,1-0.4,1-1s-0.4-1-1-1c-0.5,0-0.6-0.1-1-0.4c-0.5-0.4-1.1-0.9-2.2-0.9c-1.2,0-1.8,0.5-2.2,0.9c-0.4,0.3-0.5,0.4-1,0.4   c-0.2,0-0.3,0-0.4-0.1l3.5-2.8c0.3-0.2,0.4-0.6,0.4-0.9s-0.3-0.6-0.6-0.8l-5-2c-0.3-0.1-0.7-0.1-0.9,0.1l-3,2   C7,9.5,6.9,10.1,7.2,10.6c0.3,0.5,0.9,0.6,1.4,0.3l2.6-1.7l2.9,1.2l-2.7,2.2c-0.3-0.1-0.5-0.1-0.9-0.1c-1.2,0-1.8,0.5-2.2,0.9   c-0.3,0.3-0.5,0.4-1,0.4s-0.6-0.1-1-0.4c-0.5-0.4-1.1-0.9-2.2-0.9c-0.6,0-1,0.4-1,1S3.4,14.4,4,14.4z"/>
<path d="M4,18.4c0.4,0,0.6,0.1,1,0.4c0.5,0.4,1.1,0.9,2.2,0.9s1.8-0.5,2.2-0.9c0.3-0.3,0.5-0.4,1-0.4c0.4,0,0.6,0.1,1,0.4   c0.5,0.4,1.1,0.9,2.2,0.9c1.2,0,1.8-0.5,2.2-0.9c0.4-0.3,0.5-0.4,1-0.4c0.5,0,0.6,0.1,1,0.4c0.5,0.4,1.1,0.9,2.2,0.9   c0.6,0,1-0.4,1-1s-0.4-1-1-1c-0.5,0-0.6-0.1-1-0.4c-0.5-0.4-1.1-0.9-2.2-0.9c-1.2,0-1.8,0.5-2.2,0.9c-0.4,0.3-0.5,0.4-1,0.4   c-0.4,0-0.6-0.1-1-0.4c-0.5-0.4-1.1-0.9-2.2-0.9s-1.8,0.5-2.2,0.9c-0.3,0.3-0.5,0.4-1,0.4s-0.6-0.1-1-0.4c-0.5-0.4-1.1-0.9-2.2-0.9   c-0.6,0-1,0.4-1,1S3.4,18.4,4,18.4z"/>
</g>
</svg>