<?xml version="1.0" encoding="iso-8859-1"?>
<!-- Uploaded to: SVG Repo, www.svgrepo.com, Generator: SVG Repo Mixer Tools -->
<!DOCTYPE svg PUBLIC "-//W3C//DTD SVG 1.1//EN" "http://www.w3.org/Graphics/SVG/1.1/DTD/svg11.dtd">
<svg fill="#000000" height="800px" width="800px" version="1.1" id="Capa_1" xmlns="http://www.w3.org/2000/svg" xmlns:xlink="http://www.w3.org/1999/xlink"
	 viewBox="0 0 437.234 437.234" xml:space="preserve">
<g>
	<path d="M415.821,11.968H21.413C9.605,11.968,0,21.573,0,33.38v115.98c0,11.807,9.605,21.413,21.413,21.413h37.403v25.107
		c0,2.738,1.492,5.258,3.893,6.576c2.4,1.316,5.328,1.22,7.637-0.25l49.341-31.433h68.129v25.107c0,2.738,1.492,5.258,3.893,6.576
		c2.4,1.316,5.328,1.22,7.637-0.25l49.341-31.433h67.644l49.341,31.433c1.227,0.781,2.627,1.174,4.03,1.174
		c1.239,0,2.481-0.307,3.607-0.924c2.4-1.317,3.893-3.838,3.893-6.576v-25.107h38.621c11.807,0,21.413-9.605,21.413-21.413V33.38
		C437.234,21.573,427.628,11.968,415.821,11.968z M422.234,149.36c0,3.536-2.876,6.413-6.413,6.413H369.7
		c-4.142,0-7.5,3.358-7.5,7.5v18.937l-39.655-25.263c-1.204-0.767-2.602-1.174-4.03-1.174H246.5c-1.428,0-2.826,0.407-4.03,1.174
		l-39.655,25.263v-18.937c0-4.142-3.358-7.5-7.5-7.5H117.5c-1.428,0-2.826,0.407-4.03,1.174L73.815,182.21v-18.937
		c0-4.142-3.358-7.5-7.5-7.5H21.413c-3.536,0-6.413-2.876-6.413-6.413V33.38c0-3.536,2.876-6.413,6.413-6.413h394.409
		c3.536,0,6.413,2.876,6.413,6.413V149.36z"/>
	<path d="M97.091,322.677c16.447-9.707,27.511-27.603,27.511-48.044c0-30.745-25.013-55.757-55.757-55.757
		s-55.757,25.013-55.757,55.757c0,20.441,11.064,38.337,27.511,48.044c-18.04,9.983-30.285,29.208-30.285,51.244v43.846
		c0,4.142,3.358,7.5,7.5,7.5h102.063c4.142,0,7.5-3.358,7.5-7.5V373.92C127.376,351.884,115.13,332.659,97.091,322.677z
		 M28.088,274.632c0-22.474,18.283-40.757,40.757-40.757s40.757,18.284,40.757,40.757s-18.284,40.757-40.757,40.757
		S28.088,297.106,28.088,274.632z M112.376,410.266H25.313V373.92c0-24.003,19.528-43.531,43.531-43.531
		s43.531,19.528,43.531,43.531V410.266z"/>
	<path d="M55.77,268.016c-1.202-2.848-4.067-4.708-7.162-4.619c-3.117,0.089-5.904,2.188-6.879,5.141
		c-0.984,2.982,0.024,6.331,2.504,8.263c2.505,1.951,6.05,2.089,8.711,0.366C55.931,275.233,57.126,271.299,55.77,268.016
		C55.58,267.566,55.96,268.476,55.77,268.016z"/>
	<path d="M95.77,268.016c-1.763-4.179-6.949-5.899-10.842-3.518c-4.106,2.511-4.708,8.283-1.388,11.698
		c2.588,2.513,6.643,2.911,9.621,0.824C96.009,275.024,97.095,271.225,95.77,268.016C95.58,267.566,95.96,268.476,95.77,268.016z"/>
	<path d="M246.863,322.677c16.447-9.707,27.511-27.603,27.511-48.044c0-30.745-25.013-55.757-55.757-55.757
		s-55.757,25.013-55.757,55.757c0,20.441,11.064,38.338,27.511,48.044c-18.039,9.983-30.285,29.207-30.285,51.244v43.846
		c0,4.142,3.358,7.5,7.5,7.5h102.062c4.142,0,7.5-3.358,7.5-7.5V373.92C277.148,351.884,264.902,332.659,246.863,322.677z
		 M177.86,274.632c0-22.474,18.284-40.757,40.757-40.757c22.474,0,40.757,18.284,40.757,40.757s-18.284,40.757-40.757,40.757
		C196.144,315.389,177.86,297.106,177.86,274.632z M262.148,410.266h-87.062V373.92c0-24.003,19.528-43.531,43.531-43.531
		c24.003,0,43.531,19.528,43.531,43.531V410.266z"/>
	<path d="M205.54,268.016c-1.625-4.061-6.639-5.759-10.455-3.735c-4.411,2.34-5.213,8.378-1.775,11.915
		c2.607,2.53,6.684,2.902,9.66,0.797C205.794,274.996,206.858,271.206,205.54,268.016C205.36,267.566,205.73,268.476,205.54,268.016
		z"/>
	<path d="M245.54,268.016c-1.765-4.183-6.945-5.882-10.842-3.517c-4.114,2.498-4.698,8.292-1.388,11.697
		c2.54,2.466,6.498,2.899,9.47,0.93C245.728,275.172,246.887,271.277,245.54,268.016C245.35,267.566,245.73,268.476,245.54,268.016z
		"/>
	<path d="M396.635,322.676c16.447-9.707,27.511-27.603,27.511-48.044c0-30.745-25.012-55.757-55.757-55.757
		s-55.757,25.013-55.757,55.757c0,20.441,11.064,38.338,27.511,48.044c-18.039,9.983-30.285,29.207-30.285,51.244v43.846
		c0,4.142,3.358,7.5,7.5,7.5H419.42c4.142,0,7.5-3.358,7.5-7.5V373.92C426.92,351.884,414.675,332.659,396.635,322.676z
		 M327.632,274.632c0-22.474,18.284-40.757,40.757-40.757c22.473,0,40.757,18.284,40.757,40.757s-18.284,40.757-40.757,40.757
		C345.916,315.389,327.632,297.106,327.632,274.632z M411.92,410.266h-87.063V373.92c0-24.003,19.528-43.531,43.531-43.531
		s43.531,19.528,43.531,43.531V410.266z"/>
	<path d="M355.31,268.016c-0.359-0.897-0.926-1.756-1.62-2.43c-2.809-2.894-7.791-2.89-10.6,0
		c-4.179,4.063-1.949,11.36,3.653,12.619C352.588,279.518,357.582,273.518,355.31,268.016
		C355.13,267.566,355.5,268.476,355.31,268.016z"/>
	<path d="M395.32,268.016c-0.38-0.9-0.928-1.748-1.63-2.43c-4.243-4.371-11.819-1.692-12.716,4.202
		c-0.975,6.407,6.464,10.94,11.727,7.23C395.571,274.995,396.59,271.259,395.32,268.016
		C395.13,267.566,395.5,268.476,395.32,268.016z"/>
	<path d="M383.172,66.886H54.062c-4.142,0-7.5,3.358-7.5,7.5s3.358,7.5,7.5,7.5h329.111c4.142,0,7.5-3.358,7.5-7.5
		S387.314,66.886,383.172,66.886z"/>
	<path d="M383.172,102.885H54.062c-4.142,0-7.5,3.358-7.5,7.5s3.358,7.5,7.5,7.5h329.111c4.142,0,7.5-3.358,7.5-7.5
		S387.314,102.885,383.172,102.885z"/>
</g>
</svg>