<?xml version="1.0" ?><!DOCTYPE svg  PUBLIC '-//W3C//DTD SVG 1.1//EN'  'http://www.w3.org/Graphics/SVG/1.1/DTD/svg11.dtd'><!-- Uploaded to: SVG Repo, www.svgrepo.com, Generator: SVG Repo Mixer Tools -->
<svg width="800px" height="800px" viewBox="0 0 64 64" enable-background="new 0 0 64 64" id="Слой_3" version="1.1" xml:space="preserve" xmlns="http://www.w3.org/2000/svg" xmlns:xlink="http://www.w3.org/1999/xlink"><path d="  M44.146,59.309c-0.736-2.555,0.736-5.223,3.293-5.961" fill="none" stroke="#1B1D1E" stroke-linecap="round" stroke-linejoin="round" stroke-miterlimit="10" stroke-width="2.7"/><path d="  M38.186,56.012c2.559-0.734,5.227,0.742,5.961,3.297" fill="none" stroke="#1B1D1E" stroke-linecap="round" stroke-linejoin="round" stroke-miterlimit="10" stroke-width="2.7"/><path d="  M47.439,53.348c-2.559,0.738-5.223-0.736-5.959-3.293" fill="none" stroke="#1B1D1E" stroke-linecap="round" stroke-linejoin="round" stroke-miterlimit="10" stroke-width="2.7"/><path d="  M41.48,50.055c0.217,0.76,0.242,1.527,0.102,2.252" fill="none" stroke="#1B1D1E" stroke-linecap="round" stroke-linejoin="round" stroke-miterlimit="10" stroke-width="2.7"/><path d="  M57.053,13.382c-0.701,1.22-1.631,0.685-2.334,1.904c-0.701,1.22,0.229,1.755-0.475,2.976c-0.703,1.222-1.633,0.687-2.334,1.906" fill="none" stroke="#1B1D1E" stroke-linecap="round" stroke-linejoin="round" stroke-miterlimit="10" stroke-width="2.7"/><path d="  M12.88,10.832c0.491,0,0.888,0.397,0.888,0.888c0,0.491-0.397,0.889-0.888,0.889s-0.888-0.397-0.888-0.889" fill="none" stroke="#1B1D1E" stroke-linecap="round" stroke-linejoin="round" stroke-miterlimit="10" stroke-width="2.7"/><line fill="none" stroke="#1B1D1E" stroke-linecap="round" stroke-linejoin="round" stroke-miterlimit="10" stroke-width="2.7" x1="11.465" x2="8.1" y1="46.809" y2="44.697"/><line fill="none" stroke="#1B1D1E" stroke-linecap="round" stroke-linejoin="round" stroke-miterlimit="10" stroke-width="2.7" x1="57.738" x2="54.373" y1="36.471" y2="34.361"/><path d="  M36.961,51.053c-1.576,0.453-3.242,0.695-4.964,0.695c-9.885,0-17.897-8.012-17.897-17.896" fill="none" stroke="#1B1D1E" stroke-linecap="round" stroke-linejoin="round" stroke-miterlimit="10" stroke-width="2.7"/><path d="  M31.997,15.954c9.886,0,17.898,8.014,17.898,17.898c0,5.018-2.064,9.553-5.391,12.803" fill="none" stroke="#1B1D1E" stroke-linecap="round" stroke-linejoin="round" stroke-miterlimit="10" stroke-width="2.7"/><path d="  M16.12,25.583c0.577-1.107,1.268-2.147,2.055-3.104c2.154-2.613,5.034-4.605,8.332-5.667" fill="none" stroke="#1B1D1E" stroke-linecap="round" stroke-linejoin="round" stroke-miterlimit="10" stroke-width="2.7"/><line fill="none" stroke="#1B1D1E" stroke-linecap="round" stroke-linejoin="round" stroke-miterlimit="10" stroke-width="2.7" x1="31.997" x2="31.997" y1="12.585" y2="6.052"/><path d="  M37.326,39.182c-0.707,7.281-2.826,12.566-5.33,12.566c-3.082,0-5.582-8.012-5.582-17.896c0-9.884,2.5-17.898,5.582-17.898  c3.083,0,5.582,8.014,5.582,17.898" fill="none" stroke="#1B1D1E" stroke-linecap="round" stroke-linejoin="round" stroke-miterlimit="10" stroke-width="2.7"/><path d="  M19.684,42.301c-1.053-2.516-1.651-5.393-1.651-8.449c0-4.152,1.104-7.974,2.955-11.012" fill="none" stroke="#1B1D1E" stroke-linecap="round" stroke-linejoin="round" stroke-miterlimit="10" stroke-width="2.7"/><path d="  M43.008,22.844c1.85,3.036,2.953,6.856,2.953,11.007c0,2.633-0.443,5.133-1.24,7.383" fill="none" stroke="#1B1D1E" stroke-linecap="round" stroke-linejoin="round" stroke-miterlimit="10" stroke-width="2.7"/><path d="  M43.008,44.861c-3.037,1.852-6.859,2.953-11.011,2.953c-2.473,0-4.828-0.391-6.97-1.098" fill="none" stroke="#1B1D1E" stroke-linecap="round" stroke-linejoin="round" stroke-miterlimit="10" stroke-width="2.7"/><path d="  M20.988,22.841c3.037-1.851,6.857-2.954,11.009-2.954c2.464,0,4.812,0.389,6.949,1.092" fill="none" stroke="#1B1D1E" stroke-linecap="round" stroke-linejoin="round" stroke-miterlimit="10" stroke-width="2.7"/><path d="  M41.416,38.598c-1.266,0.246-2.639,0.443-4.09,0.584c-1.684,0.164-3.473,0.252-5.33,0.252c-9.884,0-17.897-2.498-17.897-5.582  c0-1.373,1.589-2.63,4.225-3.602" fill="none" stroke="#1B1D1E" stroke-linecap="round" stroke-linejoin="round" stroke-miterlimit="10" stroke-width="2.7"/><path d="  M22.933,29.038c2.658-0.487,5.757-0.768,9.063-0.768c9.884,0,17.898,2.498,17.898,5.582c0,1.371-1.586,2.627-4.217,3.598" fill="none" stroke="#1B1D1E" stroke-linecap="round" stroke-linejoin="round" stroke-miterlimit="10" stroke-width="2.7"/><polyline fill="none" points="  29.663,12.585 34.33,12.585 34.33,16.114 " stroke="#1B1D1E" stroke-linecap="round" stroke-linejoin="round" stroke-miterlimit="10" stroke-width="2.7"/></svg>