<?xml version="1.0" encoding="iso-8859-1"?>
<!-- Uploaded to: SVG Repo, www.svgrepo.com, Generator: SVG Repo Mixer Tools -->
<svg fill="#000000" height="800px" width="800px" version="1.1" id="Layer_1" xmlns="http://www.w3.org/2000/svg" xmlns:xlink="http://www.w3.org/1999/xlink" 
	 viewBox="0 0 511.999 511.999" xml:space="preserve">
<g>
	<g>
		<path d="M510.239,483.493L392.12,248.656c-6.028-11.988-23.177-11.965-29.194,0l-44.456,88.395L213.278,127.918v-25.595h84.328
			c9.024,0,16.339-7.316,16.339-16.339V21.165c0-9.024-7.316-16.339-16.339-16.339H196.939c-9.024,0-16.339,7.316-16.339,16.339
			c0,10.57,0,92.615,0,106.756L1.759,483.493c-5.454,10.845,2.437,23.681,14.596,23.681c7.883,0,471.428,0,479.288,0
			C507.785,507.174,515.702,494.352,510.239,483.493z M213.278,37.504h67.989v32.141h-67.989V37.504z M196.939,168.16
			l54.827,109.002l-29.396-13.42c-4.004-1.827-8.574-1.963-12.677-0.377l-75.275,29.102L196.939,168.16z M42.864,474.494
			l69.679-138.537l102.515-39.631l60.163,27.465c42.254,84.006,75.464,150.043,75.795,150.702H42.864z M387.595,474.495
			l-50.835-101.08l40.764-81.053l91.611,182.133H387.595z"/>
	</g>
</g>
</svg>