<?xml version="1.0" encoding="utf-8"?>
<!-- Uploaded to: SVG Repo, www.svgrepo.com, Generator: SVG Repo Mixer Tools -->
<svg width="800px" height="800px" viewBox="0 0 408 408" fill="none" xmlns="http://www.w3.org/2000/svg">
<g filter="url(#filter0_d_169_51010)">
<path d="M105.283 71.0995C109.046 62.0605 115.031 58.5279 123.074 54.9584C147.769 43.9992 185.773 81.5205 162.94 105.839C136.255 134.26 89.1632 121.076 105.283 79.8723" stroke="#000000" stroke-opacity="0.9" stroke-width="16" stroke-linecap="round" stroke-linejoin="round"/>
<path d="M129.406 147.312C140.268 199.39 143.276 254.075 138.587 307.466C138.023 313.906 130.689 342.699 134.981 347.011C136.006 348.041 146.939 347.632 151.332 348" stroke="#000000" stroke-opacity="0.9" stroke-width="16" stroke-linecap="round" stroke-linejoin="round"/>
<path d="M153.524 58.1799C217.257 28.8135 217.257 134.564 156.937 119.518" stroke="#000000" stroke-opacity="0.9" stroke-width="16" stroke-linecap="round" stroke-linejoin="round"/>
<path d="M167.775 140.732C177.758 181.179 228.789 204.461 267.435 208.691C272.718 209.268 300.915 202.321 304.807 207.431" stroke="#000000" stroke-opacity="0.9" stroke-width="16" stroke-linecap="round" stroke-linejoin="round"/>
<path d="M133.792 174.303C153.291 181.081 171.073 173.408 188.604 165.955" stroke="#000000" stroke-opacity="0.9" stroke-width="16" stroke-linecap="round" stroke-linejoin="round"/>
<path d="M167.775 140.732C201.314 202.415 173.866 267.873 173.866 330.454" stroke="#000000" stroke-opacity="0.9" stroke-width="16" stroke-linecap="round" stroke-linejoin="round"/>
<path d="M184.219 334.84C183.617 344.709 186.377 347.246 175.449 348" stroke="#000000" stroke-opacity="0.9" stroke-width="16" stroke-linecap="round" stroke-linejoin="round"/>
<path d="M299.525 210.187C302.844 207.687 308.052 208.151 306.813 213.473C305.388 219.599 285.837 239.011 286.606 242.062C290.961 259.344 279.604 256.901 269.711 268.35C268.202 270.097 269.793 276.68 266.067 280.838C249.78 299.014 202.59 331.057 180.93 333.743" stroke="#000000" stroke-opacity="0.9" stroke-width="16" stroke-linecap="round" stroke-linejoin="round"/>
</g>
<defs>
<filter id="filter0_d_169_51010" x="0" y="0" width="408" height="408" filterUnits="userSpaceOnUse" color-interpolation-filters="sRGB">
<feFlood flood-opacity="0" result="BackgroundImageFix"/>
<feColorMatrix in="SourceAlpha" type="matrix" values="0 0 0 0 0 0 0 0 0 0 0 0 0 0 0 0 0 0 127 0" result="hardAlpha"/>
<feOffset dy="4"/>
<feGaussianBlur stdDeviation="2"/>
<feComposite in2="hardAlpha" operator="out"/>
<feColorMatrix type="matrix" values="0 0 0 0 0 0 0 0 0 0 0 0 0 0 0 0 0 0 0.25 0"/>
<feBlend mode="normal" in2="BackgroundImageFix" result="effect1_dropShadow_169_51010"/>
<feBlend mode="normal" in="SourceGraphic" in2="effect1_dropShadow_169_51010" result="shape"/>
</filter>
</defs>
</svg>