<?xml version="1.0" encoding="utf-8"?><!-- Uploaded to: SVG Repo, www.svgrepo.com, Generator: SVG Repo Mixer Tools -->
<svg fill="#000000" width="800px" height="800px" viewBox="0 0 24 24" id="photo-camera" data-name="Flat Line" xmlns="http://www.w3.org/2000/svg" class="icon flat-line"><path id="secondary" d="M20,6H16l-.72-1.45a1,1,0,0,0-.9-.55H9.62a1,1,0,0,0-.9.55L8,6H4A1,1,0,0,0,3,7V19a1,1,0,0,0,1,1H20a1,1,0,0,0,1-1V7A1,1,0,0,0,20,6ZM12,16a3,3,0,1,1,3-3A3,3,0,0,1,12,16Z" style="fill: rgb(44, 169, 188); stroke-width: 2;"></path><path id="primary" d="M15,13a3,3,0,1,1-3-3A3,3,0,0,1,15,13Zm5-7H16l-.72-1.45a1,1,0,0,0-.9-.55H9.62a1,1,0,0,0-.9.55L8,6H4A1,1,0,0,0,3,7V19a1,1,0,0,0,1,1H20a1,1,0,0,0,1-1V7A1,1,0,0,0,20,6Z" style="fill: none; stroke: rgb(0, 0, 0); stroke-linecap: round; stroke-linejoin: round; stroke-width: 2;"></path></svg>